PathFileType	4	(X/Y/Z)	G:\Shared drives\HPL_Drive\Nord Sprinting Study\Kristen_Nord_test\Trimmed_Nord000007.trc
DataRate	CameraRate	NumFrames	NumMarkers	Units	OrigDataRate	OrigDataStartFrame	OrigNumFrames
200.00	200.00	      7	52	mm	200.00	1692	      1933
Frame#	Time	C7			R_Shoulder			L_Shoulder			Sternum			R_humerus			R_elbow_med			R_elbow_lat			R_forearm			R_wrist_radius			R_wrist_ulna			L_humerus			L_elbow_med			L_elbow_lat			L_forearm			L_wrist_radius			L_wrist_ulna			r.ASIS			r.PSIS			r_IC			L.ASIS			L.PSIS			l_IC			r_thigh1			r_thigh2			r_thigh3			r_thigh4			r_thigh5			r_knee			r_mknee			r_shank_antsup			r_sh2			r_sh3			r_sh4			r_ankle			r_mankle			r_calc			r_5meta			r_toe			L_thigh1			L_thigh2			L_thigh3			L_thigh4			L_knee			L_mknee			L_shank_antsup			L_sh2			L_sh3			L_ankle			L_mankle			L_calc			L_5meta			L_toe			
		X1	Y1	Z1	X2	Y2	Z2	X3	Y3	Z3	X4	Y4	Z4	X5	Y5	Z5	X6	Y6	Z6	X7	Y7	Z7	X8	Y8	Z8	X9	Y9	Z9	X10	Y10	Z10	X11	Y11	Z11	X12	Y12	Z12	X13	Y13	Z13	X14	Y14	Z14	X15	Y15	Z15	X16	Y16	Z16	X17	Y17	Z17	X18	Y18	Z18	X19	Y19	Z19	X20	Y20	Z20	X21	Y21	Z21	X22	Y22	Z22	X23	Y23	Z23	X24	Y24	Z24	X25	Y25	Z25	X26	Y26	Z26	X27	Y27	Z27	X28	Y28	Z28	X29	Y29	Z29	X30	Y30	Z30	X31	Y31	Z31	X32	Y32	Z32	X33	Y33	Z33	X34	Y34	Z34	X35	Y35	Z35	X36	Y36	Z36	X37	Y37	Z37	X38	Y38	Z38	X39	Y39	Z39	X40	Y40	Z40	X41	Y41	Z41	X42	Y42	Z42	X43	Y43	Z43	X44	Y44	Z44	X45	Y45	Z45	X46	Y46	Z46	X47	Y47	Z47	X48	Y48	Z48	X49	Y49	Z49	X50	Y50	Z50	X51	Y51	Z51	X52	Y52	Z52	

1692	8.455	1206.66589	948.60785	1043.28589	1335.27991	969.31696	1022.18536	1066.94983	988.89441	1019.63672	1208.84485	1034.53943	932.84155	1470.80737	844.75635	998.53467	1559.30896	752.99597	903.58502	1542.97180	728.50983	979.36041	1561.40100	842.03735	1032.39282	1558.08862	961.00671	1039.89685	1592.41321	939.19318	1067.80481	892.41150	881.66064	979.54059	806.21124	840.96826	869.94635	803.48621	802.53278	938.93890	825.76685	930.37964	1012.49091	865.45081	1017.10651	1034.33984	815.13995	1017.90155	1046.43726	1332.04395	702.00702	593.18085	1280.11084	658.65100	776.91003	1365.17236	736.44287	696.75348	1099.68225	701.25055	589.44952	1164.78528	658.16870	771.10297	1069.28882	737.57019	679.09344	1374.87964	522.64038	441.77945	1370.57727	444.49591	359.28729	1378.13696	395.63419	362.49362	1390.36194	444.16199	512.65259	1371.02686	369.23682	423.79254	1361.13025	353.15735	301.67819	1241.04846	342.31219	322.22137	1385.64209	216.79620	302.01245	1372.18042	98.89694	313.63803	1398.49365	221.65427	376.81717	1382.31506	107.75610	395.42279	1368.21216	-65.28026	359.91705	1287.73206	-52.08733	345.92664	1318.59351	-83.51741	428.84091	1365.86548	-154.35947	274.87830	1325.00928	-134.53896	223.73389	1039.63293	534.60059	438.51669	1044.26697	445.68921	329.38831	1027.05176	447.27127	518.82007	1036.04309	364.30286	412.77786	1030.53162	347.32065	323.33527	1156.12036	342.96420	303.62216	1011.70032	232.61314	307.86444	1005.19159	243.90089	397.83203	1014.50513	124.01804	403.96527	1020.48218	-52.12354	366.58847	1102.67603	-41.39729	352.24857	1060.87817	-38.71727	427.60263	1034.51135	-173.27017	300.80688	1088.76880	-175.63576	252.58945	
1693	8.460	1206.76672	949.14252	1042.77368	1335.38940	969.71826	1021.72968	1067.01038	989.76416	1019.00037	1209.00354	1034.95850	932.33990	1471.61121	844.92871	998.37701	1559.35107	753.34729	903.64209	1542.80920	728.68500	979.15344	1561.42957	842.26959	1032.00757	1557.99280	961.12878	1039.47278	1592.41516	939.58069	1067.46045	892.56952	882.16290	978.99371	806.45721	841.34662	869.29047	803.66992	802.95471	938.41589	825.90833	930.84918	1011.89362	865.56097	1017.57245	1033.75781	815.04736	1018.29382	1045.95569	1332.31519	702.06250	593.10522	1280.07788	658.87976	776.74792	1365.20581	736.56268	696.60315	1099.74402	701.34491	589.11041	1164.66846	658.41260	770.95087	1069.30103	737.79425	678.80640	1374.88220	522.68915	441.75070	1370.58130	444.44104	359.20386	1378.10706	395.70273	362.51782	1390.35815	444.21991	512.63708	1371.01355	369.28632	423.82385	1361.09729	353.17133	301.73221	1241.04053	342.29501	322.22415	1385.58167	216.76933	302.02713	1372.19727	98.86205	313.67944	1398.43469	221.61235	376.85327	1382.28271	107.71350	395.47241	1368.13220	-65.29170	359.98615	1287.64673	-52.09876	345.91235	1318.48926	-83.46873	428.90796	1365.74524	-154.42310	274.95428	1324.84473	-134.69402	223.70987	1039.67566	534.70618	438.50061	1044.27576	445.83234	329.13412	1026.97729	447.36676	518.77856	1036.01074	364.32104	412.75925	1030.54138	347.31134	323.26990	1156.16113	342.97589	303.65033	1011.68481	232.66478	307.83728	1005.17786	243.87009	397.84955	1014.48962	124.06754	403.99234	1019.86224	-52.14718	366.53290	1102.68884	-41.43072	352.34247	1060.83447	-38.70051	427.61102	1034.55286	-173.27666	300.74933	1088.80188	-175.65259	252.47235	
1694	8.465	1206.81348	949.72955	1042.02393	1335.43591	970.12347	1021.24725	1067.09253	990.01202	1018.66803	1209.11719	1035.38049	931.81531	1471.61218	845.20325	998.02173	1559.21790	753.39294	903.44067	1542.66052	728.87939	978.94635	1561.73413	842.46783	1031.59509	1558.18347	961.34729	1038.97339	1592.60938	939.80542	1066.98950	892.65033	882.59363	978.51331	806.60406	841.67194	868.79175	803.80487	803.37054	937.89532	826.07245	931.38013	1011.32715	865.64374	1018.08130	1033.12671	815.09491	1018.78888	1045.38074	1332.13281	702.10706	592.85809	1280.00916	659.11816	776.59180	1365.21838	736.70062	696.47858	1099.76636	701.42322	588.96210	1164.56848	658.65442	770.79828	1069.34216	738.05609	678.50702	1374.88049	522.76410	441.69412	1370.61426	444.52133	359.19482	1378.10266	395.73535	362.51636	1390.32629	444.25510	512.61401	1371.01013	369.30981	423.85049	1361.07202	353.15839	301.74460	1241.09644	342.31500	322.23041	1385.58435	216.74097	302.05176	1372.11926	98.86965	313.70187	1398.45679	221.62100	376.85953	1382.23523	107.67948	395.49481	1368.04700	-65.31267	360.05203	1287.59412	-52.10233	345.86893	1318.38098	-83.45320	428.93265	1365.61377	-154.51355	275.04517	1324.70313	-134.74660	223.80769	1039.60767	534.73822	438.33569	1044.22888	445.80124	328.96518	1027.00647	447.46219	518.69769	1036.01526	364.34616	412.74225	1030.58789	347.29105	323.24048	1156.18579	342.96695	303.65869	1011.69244	232.65076	307.72845	1005.17792	243.85599	397.88571	1014.45667	124.05781	404.05179	1020.46033	-52.13276	366.57852	1102.64307	-41.43534	352.39285	1060.77832	-38.68910	427.61053	1034.52527	-173.30096	300.73721	1088.77246	-175.69426	252.41284	
1695	8.470	1206.83167	950.24084	1041.60388	1335.51807	970.56409	1020.76782	1067.13574	990.49066	1018.21210	1209.22778	1035.75610	931.24780	1470.73962	845.59106	997.51428	1559.11829	753.44543	903.26288	1542.50928	729.06476	978.76697	1561.46313	842.72540	1031.35535	1558.41003	961.63257	1038.40894	1592.78113	940.04388	1066.50488	892.74500	883.04309	978.04352	806.70898	841.99316	868.38330	803.91394	803.74158	937.43854	826.12573	931.84094	1010.81122	865.72083	1018.51410	1032.53162	815.17755	1019.29346	1044.68359	1332.18994	702.17200	592.70313	1279.90796	659.32971	776.47101	1364.83191	736.86237	696.21191	1099.81506	701.54456	588.67798	1164.50537	658.95056	770.60614	1069.36731	738.26392	678.24707	1374.92590	522.73248	441.65256	1370.54858	444.62405	359.22977	1378.08777	395.73718	362.56244	1390.30981	444.36075	512.61920	1370.99329	369.30966	423.85037	1361.03638	353.13235	301.80576	1241.08032	342.32892	322.26675	1385.53015	216.74448	302.05618	1372.05774	98.82986	313.70062	1398.44873	221.58273	376.89221	1382.17590	107.68027	395.50891	1367.83789	-65.54244	360.30093	1287.55640	-52.10248	345.88455	1318.32068	-83.42276	428.95651	1365.49829	-154.57143	275.11710	1324.56445	-134.75706	223.91245	1039.61792	534.80450	438.27502	1044.23315	445.83929	328.83218	1026.95154	447.62857	518.64294	1036.01855	364.41061	412.73431	1030.56409	347.27414	323.21988	1156.22144	342.98877	303.66370	1011.68579	232.62456	307.82037	1005.23193	243.87094	397.89459	1014.46954	124.00970	404.08102	1020.44147	-52.11994	366.59424	1102.61230	-41.39164	352.48575	1060.74622	-38.68077	427.59665	1034.53613	-173.30754	300.71442	1088.77075	-175.72624	252.35309	
1696	8.475	1206.88977	950.78302	1041.18811	1335.65405	970.99872	1020.28107	1067.20203	991.05426	1017.76447	1209.25024	1036.34717	930.71716	1470.66833	845.86664	997.21979	1558.98376	753.55103	903.03918	1542.37146	729.25623	978.61548	1561.47021	842.96716	1031.00159	1558.63245	961.91486	1037.85315	1592.97339	940.29773	1066.03271	892.81879	883.51306	977.55048	806.87640	842.33502	867.82916	804.02899	804.15918	936.97693	826.09235	932.25482	1010.31775	865.84912	1018.98529	1031.95459	815.30658	1019.81494	1043.93835	1332.20789	702.23199	592.54883	1279.81738	659.55603	776.33966	1364.81958	737.00867	696.11047	1099.85376	701.65039	588.35571	1164.49719	659.32990	770.70685	1069.39771	738.47058	678.04156	1374.92798	522.79871	441.65125	1370.57092	444.55609	359.19403	1378.05554	395.73688	362.61417	1390.31335	444.40445	512.64014	1370.97119	369.32635	423.90228	1361.01794	353.11249	301.82068	1241.11108	342.28769	322.26587	1385.48950	216.72110	302.06183	1371.97290	98.83464	313.71445	1398.38635	221.53467	376.90808	1382.16858	107.66167	395.52753	1367.78003	-65.61050	360.36090	1286.74670	-52.24430	346.60611	1318.27222	-83.42516	428.98740	1365.40198	-154.63715	275.26324	1324.41235	-134.85930	224.00050	1039.63635	534.92621	438.15555	1044.37939	445.96133	328.95422	1026.93555	447.67935	518.59094	1036.03845	364.46857	412.70822	1030.59888	347.30298	323.21790	1156.29065	342.95532	303.68262	1011.69910	232.65747	307.85544	1005.23236	243.89670	397.89737	1014.45001	124.08911	404.09564	1020.43579	-52.08619	366.56982	1102.59790	-41.35437	352.57803	1060.67908	-38.65809	427.66928	1034.57275	-173.29417	300.69485	1088.81909	-175.73955	252.33035	
1697	8.480	1206.93433	951.29333	1040.79883	1335.77612	971.38300	1019.84338	1067.30518	991.61816	1017.25531	1209.37756	1036.73242	930.25726	1470.66968	846.15765	996.90247	1558.87585	753.62177	902.85144	1542.26062	729.41687	978.45667	1561.51855	843.21667	1030.63428	1558.77881	962.13019	1037.35632	1593.13770	940.53668	1065.53943	892.91998	883.98895	977.00574	807.12146	842.72662	867.27356	804.15015	804.59045	936.55170	826.23376	932.77948	1009.67462	865.99799	1019.43597	1031.29919	815.40051	1020.34399	1043.26208	1332.20520	702.28339	592.35730	1279.77612	659.79462	776.17438	1364.81873	737.13007	695.96094	1099.85962	701.74475	588.10315	1164.52502	659.66077	770.83948	1069.40173	738.71423	677.78906	1374.97852	522.81787	441.56918	1370.59387	444.52487	359.17883	1378.08057	395.70908	362.63885	1390.30017	444.47711	512.62830	1370.93604	369.34357	423.92245	1360.97803	353.10785	301.89032	1241.08142	342.29694	322.25388	1385.46399	216.69666	302.10159	1371.97473	98.81602	313.79816	1398.36792	221.49771	376.91138	1382.13916	107.63976	395.57486	1367.77197	-65.61597	360.44836	1286.74841	-52.23314	346.51358	1318.17603	-83.42597	429.03818	1365.27795	-154.69839	275.37067	1324.31714	-134.94661	224.11568	1039.63000	534.97028	438.08301	1044.30762	445.83670	328.89584	1026.93054	447.77545	518.49420	1036.04578	364.56732	412.66006	1030.60803	347.32916	323.16296	1156.27234	342.95792	303.67108	1011.70355	232.66318	307.80716	1005.23059	243.93770	397.87814	1014.44568	124.08121	404.13577	1020.38770	-52.04176	366.55008	1102.54272	-41.32954	352.64383	1060.57593	-38.62706	427.71765	1034.54639	-173.26868	300.69028	1088.80103	-175.72246	252.36864	
1698	8.485	1206.96826	951.78455	1040.39465	1335.84851	971.81708	1019.42365	1067.48486	992.12994	1016.63745	1209.52100	1037.06555	929.76056	1470.69385	846.40686	996.60236	1558.74866	753.61212	902.67651	1542.11865	729.60858	978.28851	1561.63245	843.46710	1030.26575	1559.00439	962.33942	1036.86475	1593.30566	940.75995	1065.11536	893.00006	884.41980	976.54077	807.40576	843.11310	866.64600	804.32080	805.01105	936.05859	826.37457	933.31500	1009.04297	866.07947	1019.93555	1030.59045	815.50989	1020.86462	1042.57886	1332.25293	702.39063	592.17987	1279.76294	660.02606	776.03162	1364.85376	737.25787	695.71576	1099.92517	701.86548	587.95233	1164.45386	659.77106	770.55402	1069.39697	738.93652	677.55609	1375.07202	522.82129	441.54465	1370.56543	444.48520	359.13409	1378.09607	395.71124	362.70328	1390.28931	444.51749	512.63483	1370.89478	369.33908	423.95016	1360.94885	353.10065	301.98459	1241.09265	342.25903	322.25031	1385.44543	216.69528	302.13004	1371.92151	98.79558	313.84668	1398.35693	221.48599	376.95935	1382.09619	107.59409	395.60919	1367.69861	-65.62665	360.54474	1286.74243	-52.27136	346.48233	1318.08862	-83.41137	429.08920	1365.19543	-154.78061	275.41907	1324.18896	-134.97540	224.27393	1039.62048	535.04413	437.90417	1044.27917	445.86942	328.70026	1026.93555	447.81393	518.42950	1036.14575	364.53015	412.46481	1030.64136	347.36499	323.12070	1156.31055	342.98602	303.66766	1011.70221	232.67099	307.70386	1005.25604	243.98526	397.90909	1014.82593	123.91072	404.31805	1020.35217	-51.99690	366.54062	1102.44641	-41.29994	352.77441	1060.48877	-38.55418	427.75607	1034.55164	-173.23456	300.72156	1088.77832	-175.70282	252.42928	
